<svg width="274" height="568" viewBox="0 0 274 568" fill="none" xmlns="http://www.w3.org/2000/svg">
<g clip-path="url(#clip0_5_21)">
<path d="M264 0H10C4.47715 0 0 4.47715 0 10V558C0 563.523 4.47715 568 10 568H264C269.523 568 274 563.523 274 558V10C274 4.47715 269.523 0 264 0Z" fill="#483EFF"/>
<mask id="mask0_5_21" style="mask-type:alpha" maskUnits="userSpaceOnUse" x="0" y="0" width="274" height="568">
<path d="M264 0H10C4.47715 0 0 4.47715 0 10V558C0 563.523 4.47715 568 10 568H264C269.523 568 274 563.523 274 558V10C274 4.47715 269.523 0 264 0Z" fill="white"/>
</mask>
<g mask="url(#mask0_5_21)">
<path fill-rule="evenodd" clip-rule="evenodd" d="M-34.692 543.101C3.24699 632.538 168.767 685.017 211.96 612.52C255.154 540.023 145.861 526.867 107.225 451.951C68.59 377.035 38.568 330.277 -17.257 347.344C-73.081 364.412 -72.631 453.664 -34.692 543.101Z" fill="#6259FF"/>
<path fill-rule="evenodd" clip-rule="evenodd" d="M233.095 601.153C293.774 572.875 325.934 457.627 274.97 429.625C224.005 401.622 217.573 477.204 166.911 505.612C116.249 534.02 84.771 555.819 97.867 593.853C110.963 631.887 172.416 629.431 233.095 601.153Z" fill="#F9818E"/>
<path d="M165.305 469.097L175.912 458.291M209.461 474.581L196.955 464.078M187.56 488.991L180.652 503.789" stroke="white" stroke-width="5" stroke-linecap="round" stroke-linejoin="bevel"/>
<path d="M0.304993 546.891C37.308 546.891 67.305 516.894 67.305 479.891C67.305 442.888 37.308 412.891 0.304993 412.891C-36.698 412.891 -66.695 442.888 -66.695 479.891C-66.695 516.894 -36.698 546.891 0.304993 546.891Z" fill="#FFAF7E"/>
</g>
</g>
<defs>
<clipPath id="clip0_5_21">
<rect width="274" height="568" fill="white"/>
</clipPath>
</defs>
</svg>
